<svg width="373" height="357" viewBox="0 0 373 357" fill="none" xmlns="http://www.w3.org/2000/svg">
<g clip-path="url(#clip0_4_2)">
<path d="M165.662 86.1994H0.0708008V197.459H165.662V86.1994Z" fill="#F2F2F2"/>
<path d="M160.926 100.154H4.80566V190.877H160.926V100.154Z" fill="white"/>
<path d="M165.591 86.1009H0V93.4813H165.591V86.1009Z" fill="#6C63FF"/>
<path d="M5.22769 91.242C5.9478 91.242 6.53155 90.6296 6.53155 89.8741C6.53155 89.1187 5.9478 88.5062 5.22769 88.5062C4.50759 88.5062 3.92383 89.1187 3.92383 89.8741C3.92383 90.6296 4.50759 91.242 5.22769 91.242Z" fill="white"/>
<path d="M10.1769 91.242C10.897 91.242 11.4808 90.6296 11.4808 89.8741C11.4808 89.1187 10.897 88.5062 10.1769 88.5062C9.45681 88.5062 8.87305 89.1187 8.87305 89.8741C8.87305 90.6296 9.45681 91.242 10.1769 91.242Z" fill="white"/>
<path d="M15.1261 91.242C15.8462 91.242 16.43 90.6296 16.43 89.8741C16.43 89.1187 15.8462 88.5062 15.1261 88.5062C14.406 88.5062 13.8223 89.1187 13.8223 89.8741C13.8223 90.6296 14.406 91.242 15.1261 91.242Z" fill="white"/>
<path d="M59.1069 109.567H18.9912V181.464H59.1069V109.567Z" fill="#F2F2F2"/>
<path d="M99.4614 109.567H66.0317V129.358H99.4614V109.567Z" fill="#6C63FF"/>
<path d="M99.4614 134.869H66.0317V156.162H99.4614V134.869Z" fill="#F2F2F2"/>
<path d="M99.4614 161.673H66.0317V181.464H99.4614V161.673Z" fill="#F2F2F2"/>
<path d="M146.741 109.567H106.625V140.899H146.741V109.567Z" fill="#F2F2F2"/>
<path d="M146.741 150.132H106.625V181.464H146.741V150.132Z" fill="#F2F2F2"/>
<path d="M373 86.1994H207.409V197.459H373V86.1994Z" fill="#F2F2F2"/>
<path d="M368.265 100.154H212.145V190.877H368.265V100.154Z" fill="white"/>
<path d="M372.929 86.1009H207.338V93.4813H372.929V86.1009Z" fill="#6C63FF"/>
<path d="M212.567 91.242C213.287 91.242 213.87 90.6296 213.87 89.8741C213.87 89.1187 213.287 88.5062 212.567 88.5062C211.846 88.5062 211.263 89.1187 211.263 89.8741C211.263 90.6296 211.846 91.242 212.567 91.242Z" fill="white"/>
<path d="M217.515 91.242C218.235 91.242 218.819 90.6296 218.819 89.8741C218.819 89.1187 218.235 88.5062 217.515 88.5062C216.795 88.5062 216.211 89.1187 216.211 89.8741C216.211 90.6296 216.795 91.242 217.515 91.242Z" fill="white"/>
<path d="M222.465 91.242C223.185 91.242 223.768 90.6296 223.768 89.8741C223.768 89.1187 223.185 88.5062 222.465 88.5062C221.744 88.5062 221.161 89.1187 221.161 89.8741C221.161 90.6296 221.744 91.242 222.465 91.242Z" fill="white"/>
<path d="M354.043 109.567H313.927V181.464H354.043V109.567Z" fill="#F2F2F2"/>
<path d="M307.281 109.566H226.366V129.356H307.281V109.566Z" fill="#6C63FF"/>
<path d="M307.281 134.868H226.366V156.161H307.281V134.868Z" fill="#F2F2F2"/>
<path d="M307.281 161.672H226.366V181.463H307.281V161.672Z" fill="#F2F2F2"/>
<path d="M185.562 0H184.637V53.0535H185.562V0Z" fill="#CCCCCC"/>
<path d="M278.124 86.0703H277.198V53.5393H93.0003V86.0703H92.0747V52.5682H278.124V86.0703Z" fill="#CCCCCC"/>
<path d="M191.91 148.316L191.213 144.66C191.213 144.66 180.962 141.004 179.815 148.316H191.91Z" fill="#E6E6E6"/>
<path d="M172.236 349.609L165.516 349.609L162.319 322.414L172.237 322.415L172.236 349.609Z" fill="#FFB8B8"/>
<path d="M173.95 356.444L152.281 356.443V356.155C152.281 353.808 153.17 351.558 154.751 349.899C156.333 348.239 158.478 347.307 160.715 347.307H160.716L173.951 347.307L173.95 356.444Z" fill="#2F2E41"/>
<path d="M195.34 349.609L202.061 349.609L205.258 322.414L195.339 322.415L195.34 349.609Z" fill="#FFB8B8"/>
<path d="M193.626 347.307L206.861 347.307H206.861C209.098 347.307 211.244 348.239 212.825 349.899C214.407 351.558 215.296 353.808 215.296 356.155V356.443L193.626 356.444L193.626 347.307Z" fill="#2F2E41"/>
<path d="M201.667 163.67L209.333 162.939L214.211 187.067L213.514 209.002L205.848 238.248L195.395 231.668L200.97 201.69L201.667 163.67Z" fill="#2F2E41"/>
<path d="M206.519 235.689L204.803 251.043L206.894 286.87V340.259L193.652 339.514L190.865 283.945L183.198 258.355L177.623 287.601L174.138 342.438L160.548 341.295V287.409L160.199 248.119L165.078 232.765L206.519 235.689Z" fill="#2F2E41"/>
<path d="M177.971 149.047C177.971 149.047 182.85 141.736 191.91 146.854L196.091 152.703L209.333 162.939L206.545 197.303L210.03 240.442L160.548 239.711L168.911 196.572V150.509L177.971 149.047Z" fill="#2F2E41"/>
<path opacity="0.25" d="M204.803 175.075L208.799 225.201L203.757 198.035L204.803 175.075Z" fill="black"/>
<path d="M168.454 249.763C168.936 249.159 169.286 248.451 169.48 247.689C169.673 246.927 169.705 246.13 169.573 245.354C169.441 244.578 169.148 243.841 168.715 243.197C168.283 242.552 167.72 242.015 167.068 241.623L168.558 229.4L161.699 226.638L159.826 243.931C159.271 245.124 159.152 246.488 159.492 247.767C159.832 249.045 160.607 250.149 161.671 250.867C162.734 251.586 164.012 251.871 165.262 251.668C166.512 251.464 167.648 250.786 168.454 249.763Z" fill="#FFB8B8"/>
<path d="M159.851 237.517H171.002V232.399H159.851V237.517Z" fill="#E6E6E6"/>
<path d="M176.229 156.724L168.911 150.509C168.911 150.509 163.684 150.144 162.987 158.187C162.29 166.229 161.442 200.594 161.442 200.594L158.806 234.958L173.441 235.689L176.229 198.495V156.724Z" fill="#2F2E41"/>
<path d="M198.007 132.962C201.714 125.847 199.222 116.926 192.44 113.036C185.658 109.147 177.155 111.762 173.447 118.877C169.74 125.992 172.232 134.913 179.014 138.802C185.796 142.692 194.3 140.077 198.007 132.962Z" fill="#FFB8B8"/>
<path d="M184.681 138.871C188.105 139.733 191.712 139.23 194.802 137.459C197.892 135.687 200.245 132.774 201.402 129.285C202.56 125.797 202.44 121.981 201.066 118.579C199.693 115.178 197.163 112.434 193.969 110.879C191.509 109.727 188.819 109.221 186.131 109.403C181.945 109.634 177.877 111.257 173.687 111.138L173.08 112.162L170.792 111.579L170.301 113.486L169.698 113.464C168.618 115.569 170.356 118.583 172.635 118.558C173.537 118.548 174.39 118.153 175.272 117.955C176.154 117.757 177.193 117.806 177.801 118.505C178.592 119.413 178.248 120.831 178.083 122.049C177.918 123.267 178.33 124.907 179.502 124.947C180.1 124.967 180.67 124.517 181.258 124.635C181.943 124.773 182.29 125.641 182.19 126.366C182.02 127.076 181.743 127.754 181.37 128.373C179.671 131.931 181.106 136.77 184.428 138.69" fill="#2F2E41"/>
<path d="M273.264 357H96.934C96.8113 357 96.6935 356.949 96.6067 356.858C96.5199 356.767 96.4712 356.643 96.4712 356.514C96.4712 356.386 96.5199 356.262 96.6067 356.171C96.6935 356.08 96.8113 356.029 96.934 356.029H273.264C273.387 356.029 273.505 356.08 273.592 356.171C273.678 356.262 273.727 356.386 273.727 356.514C273.727 356.643 273.678 356.767 273.592 356.858C273.505 356.949 273.387 357 273.264 357Z" fill="#CCCCCC"/>
</g>
<defs>
<clipPath id="clip0_4_2">
<rect width="373" height="357" fill="white"/>
</clipPath>
</defs>
</svg>
